<?xml version="1.0" encoding="UTF-8"?>
<svg xmlns="http://www.w3.org/2000/svg" xmlns:xlink="http://www.w3.org/1999/xlink" width="400px" height="81px" viewBox="0 0 396 81" version="1.1">
<g id="surface1">
<path style=" stroke:none;fill-rule:nonzero;fill:rgb(100%,100%,100%);fill-opacity:1;" d="M 82.703125 0.769531 L 1.585938 0.769531 C 3.410156 34.636719 16.546875 60.632812 42.144531 77.976562 C 65.074219 61.871094 80.582031 38.148438 82.703125 0.769531 Z M 82.703125 0.769531 "/>
<path style=" stroke:none;fill-rule:nonzero;fill:rgb(73.72549%,0%,17.254902%);fill-opacity:1;" d="M 83.71875 0.113281 L 2.613281 0.113281 C 2.066406 0.113281 -0.0429688 0.355469 0 1.183594 C 0.6875 13.539062 2.898438 25.859375 7.457031 37.390625 C 11.601562 47.898438 17.703125 57.570312 25.488281 65.753906 C 30.0625 70.546875 35.179688 74.792969 40.648438 78.511719 C 41.292969 78.949219 42.800781 78.414062 43.359375 78.019531 C 52.269531 71.738281 60.253906 64.199219 66.597656 55.292969 C 73.453125 45.664062 78.1875 34.691406 80.988281 23.222656 C 82.8125 15.714844 83.839844 8.035156 84.289062 0.332031 C 84.3125 -0.128906 81.171875 0.234375 81.117188 1.183594 C 80.363281 14.085938 77.945312 26.953125 72.90625 38.902344 C 68.609375 49.089844 62.441406 58.402344 54.699219 66.289062 C 50.476562 70.589844 45.851562 74.453125 40.929688 77.921875 L 43.644531 77.429688 C 34.042969 70.898438 25.597656 62.710938 19.167969 52.996094 C 12.738281 43.277344 8.519531 32.632812 6.003906 21.4375 C 4.449219 14.5 3.566406 7.433594 3.171875 0.34375 L 0.558594 1.414062 L 27.960938 1.414062 C 42.527344 1.414062 57.082031 1.414062 71.648438 1.414062 L 81.675781 1.414062 C 82.375 1.414062 83.347656 1.285156 83.917969 0.8125 C 84.320312 0.484375 84.429688 0.113281 83.730469 0.113281 Z M 83.71875 0.113281 "/>
<path style=" stroke:none;fill-rule:nonzero;fill:rgb(100%,100%,100%);fill-opacity:1;" d="M 48.96875 22.828125 C 48.96875 15.222656 55.824219 11.078125 64.289062 11.078125 C 72.753906 11.078125 79.609375 15.222656 79.609375 22.828125 "/>
<path style=" stroke:none;fill-rule:nonzero;fill:rgb(73.72549%,0%,17.254902%);fill-opacity:1;" d="M 50.542969 22.402344 C 50.585938 19.066406 52.019531 16.035156 54.742188 14.054688 C 57.464844 12.074219 61.074219 11.546875 64.429688 11.710938 C 71.179688 12.039062 77.890625 15.824219 78 23.253906 C 78 23.691406 81.183594 23.253906 81.171875 22.402344 C 80.964844 8.242188 59.5 7.859375 51.253906 14.839844 C 48.726562 16.984375 47.414062 19.960938 47.371094 23.253906 C 47.371094 23.660156 50.53125 23.265625 50.542969 22.402344 Z M 50.542969 22.402344 "/>
<path style=" stroke:none;fill-rule:nonzero;fill:rgb(100%,100%,100%);fill-opacity:1;" d="M 4.722656 22.828125 C 4.722656 15.222656 11.582031 11.078125 20.042969 11.078125 C 28.507812 11.078125 35.363281 15.222656 35.363281 22.828125 "/>
<path style=" stroke:none;fill-rule:nonzero;fill:rgb(73.72549%,0%,17.254902%);fill-opacity:1;" d="M 6.320312 22.652344 C 6.363281 19.414062 7.65625 16.4375 10.355469 14.554688 C 13.058594 12.675781 16.566406 12.007812 19.859375 12.0625 C 26.453125 12.171875 33.667969 15.53125 33.777344 23.015625 C 33.800781 24.449219 36.972656 23.8125 36.960938 22.664062 C 36.753906 8.472656 15.78125 7.0625 7.171875 14.382812 C 4.605469 16.570312 3.191406 19.65625 3.148438 23.015625 C 3.128906 24.4375 6.308594 23.824219 6.332031 22.664062 Z M 6.320312 22.652344 "/>
<path style=" stroke:none;fill-rule:nonzero;fill:rgb(100%,100%,100%);fill-opacity:1;" d="M 48.96875 38.453125 C 48.96875 43.597656 45.917969 46.410156 42.167969 46.410156 C 38.414062 46.410156 35.363281 43.597656 35.363281 38.453125 "/>
<path style=" stroke:none;fill-rule:nonzero;fill:rgb(73.72549%,0%,17.254902%);fill-opacity:1;" d="M 47.371094 38.617188 C 47.359375 40.171875 47.121094 41.757812 46.320312 43.113281 C 46.015625 43.640625 45.65625 44.089844 45.183594 44.484375 C 45.304688 44.382812 45.03125 44.59375 45 44.625 C 44.878906 44.710938 44.746094 44.789062 44.628906 44.875 C 44.386719 45.03125 44.714844 44.84375 44.464844 44.964844 C 44.308594 45.039062 44.144531 45.105469 43.980469 45.171875 C 43.808594 45.25 44.015625 45.160156 44.035156 45.148438 C 43.960938 45.171875 43.894531 45.195312 43.816406 45.214844 C 43.675781 45.261719 43.523438 45.292969 43.378906 45.324219 C 43.195312 45.371094 43.402344 45.324219 43.433594 45.316406 C 43.359375 45.316406 43.28125 45.335938 43.207031 45.347656 C 43.019531 45.371094 42.84375 45.378906 42.660156 45.390625 C 42.898438 45.390625 42.417969 45.390625 42.351562 45.378906 C 42.199219 45.378906 42.046875 45.359375 41.882812 45.335938 C 41.640625 45.316406 41.464844 45.269531 41.128906 45.171875 C 40.054688 44.855469 39.070312 44.121094 38.371094 43.160156 C 37.355469 41.78125 36.972656 39.984375 36.960938 38.289062 C 36.960938 37.546875 36.175781 37.382812 35.550781 37.445312 C 35.035156 37.5 33.769531 37.894531 33.777344 38.617188 C 33.8125 42.261719 35.332031 45.730469 38.972656 47 C 42.285156 48.148438 46.441406 47.074219 48.640625 44.308594 C 49.996094 42.589844 50.566406 40.46875 50.574219 38.300781 C 50.574219 37.554688 49.777344 37.390625 49.164062 37.457031 C 48.640625 37.511719 47.394531 37.90625 47.394531 38.628906 Z M 47.371094 38.617188 "/>
<path style=" stroke:none;fill-rule:nonzero;fill:rgb(100%,100%,100%);fill-opacity:1;" d="M 13.886719 22.828125 C 13.886719 19.425781 16.644531 17.578125 20.035156 17.578125 C 23.421875 17.578125 26.179688 19.4375 26.179688 22.828125 "/>
<path style=" stroke:none;fill-rule:nonzero;fill:rgb(73.72549%,0%,17.254902%);fill-opacity:1;" d="M 15.484375 22.664062 C 15.484375 21.996094 15.570312 21.320312 15.855469 20.71875 C 15.953125 20.507812 16.164062 20.136719 16.226562 20.050781 C 16.316406 19.941406 16.414062 19.832031 16.511719 19.722656 C 16.546875 19.675781 16.929688 19.347656 16.765625 19.46875 C 16.875 19.382812 16.992188 19.292969 17.125 19.21875 C 17.148438 19.207031 17.539062 18.988281 17.289062 19.121094 C 17.441406 19.042969 17.605469 18.964844 17.769531 18.902344 C 17.878906 18.855469 17.867188 18.855469 17.714844 18.910156 C 17.8125 18.878906 17.910156 18.847656 18.011719 18.8125 C 18.535156 18.660156 19.105469 18.582031 19.628906 18.59375 C 22.101562 18.636719 24.550781 20.105469 24.59375 22.972656 C 24.59375 23.714844 25.378906 23.902344 26.015625 23.847656 C 26.539062 23.792969 27.796875 23.386719 27.785156 22.664062 C 27.765625 21.265625 27.414062 19.929688 26.472656 18.855469 C 25.589844 17.839844 24.332031 17.183594 23.03125 16.84375 C 20.023438 16.078125 16.4375 16.636719 14.117188 18.78125 C 12.949219 19.863281 12.3125 21.394531 12.292969 22.972656 C 12.292969 23.714844 13.089844 23.902344 13.710938 23.847656 C 14.257812 23.792969 15.472656 23.386719 15.484375 22.664062 Z M 15.484375 22.664062 "/>
<path style=" stroke:none;fill-rule:nonzero;fill:rgb(100%,100%,100%);fill-opacity:1;" d="M 51.734375 56.519531 C 51.734375 59.921875 46.441406 63.882812 41.511719 63.882812 C 36.578125 63.882812 31.144531 60.667969 31.144531 57.261719 "/>
<path style=" stroke:none;fill-rule:nonzero;fill:rgb(73.72549%,0%,17.254902%);fill-opacity:1;" d="M 50.136719 56.695312 C 50.019531 60.394531 45.195312 62.921875 41.9375 62.910156 C 38.679688 62.898438 32.851562 60.863281 32.71875 56.835938 C 32.6875 55.710938 29.503906 56.375 29.546875 57.691406 C 29.625 60.03125 31.710938 61.816406 33.59375 62.886719 C 36.042969 64.289062 38.941406 64.976562 41.75 64.824219 C 44.5625 64.671875 47.351562 63.585938 49.582031 61.925781 C 51.339844 60.613281 53.242188 58.675781 53.308594 56.332031 C 53.351562 54.921875 50.160156 55.523438 50.128906 56.683594 Z M 50.136719 56.695312 "/>
<path style=" stroke:none;fill-rule:nonzero;fill:rgb(73.72549%,0%,17.254902%);fill-opacity:1;" d="M 47.382812 23.253906 L 47.382812 38.890625 C 47.382812 39.59375 50.554688 39.089844 50.554688 38.039062 L 50.554688 22.402344 C 50.554688 21.703125 47.382812 22.203125 47.382812 23.253906 Z M 47.382812 23.253906 "/>
<path style=" stroke:none;fill-rule:nonzero;fill:rgb(100%,100%,100%);fill-opacity:1;" d="M 66.441406 19.042969 L 67.285156 21.65625 L 70.03125 21.65625 L 67.808594 23.277344 L 68.664062 25.882812 L 66.441406 24.273438 L 64.222656 25.882812 L 65.066406 23.277344 L 62.84375 21.65625 L 65.589844 21.65625 Z M 66.441406 19.042969 "/>
<path style=" stroke:none;fill-rule:nonzero;fill:rgb(73.72549%,0%,17.254902%);fill-opacity:1;" d="M 64.855469 19.46875 C 65.140625 20.34375 65.425781 21.210938 65.710938 22.085938 C 65.765625 22.257812 66.136719 22.269531 66.257812 22.269531 C 67.175781 22.269531 68.082031 22.269531 69 22.269531 L 68.609375 21.8125 L 66.386719 23.429688 C 66.277344 23.496094 66.234375 23.59375 66.234375 23.703125 L 67.089844 26.320312 L 70.171875 25.367188 C 69.429688 24.832031 68.695312 24.292969 67.953125 23.746094 C 67.625 23.507812 66.871094 23.714844 66.550781 23.792969 C 66.015625 23.910156 65.480469 24.097656 65.03125 24.425781 C 64.289062 24.960938 63.554688 25.5 62.8125 26.046875 L 65.796875 25.609375 L 66.652344 22.992188 C 66.707031 22.894531 66.683594 22.816406 66.585938 22.761719 L 64.363281 21.144531 L 61.828125 22.28125 C 62.746094 22.28125 63.65625 22.28125 64.574219 22.28125 C 65.109375 22.28125 65.644531 22.160156 66.148438 21.976562 C 66.398438 21.886719 67.078125 21.679688 67.175781 21.375 C 67.460938 20.496094 67.746094 19.632812 68.027344 18.757812 C 68.191406 18.253906 66.988281 18.472656 66.78125 18.515625 C 66.367188 18.59375 65.949219 18.703125 65.566406 18.890625 C 65.371094 18.976562 64.976562 19.128906 64.910156 19.347656 C 64.628906 20.222656 64.34375 21.089844 64.058594 21.964844 L 66.652344 21.066406 C 65.730469 21.066406 64.824219 21.066406 63.90625 21.066406 C 63.261719 21.066406 62.550781 21.242188 61.96875 21.515625 C 61.804688 21.59375 61.03125 21.953125 61.367188 22.203125 L 63.589844 23.824219 L 63.523438 23.59375 L 62.671875 26.210938 C 62.515625 26.667969 63.546875 26.503906 63.71875 26.484375 C 64.398438 26.386719 65.097656 26.175781 65.65625 25.773438 C 66.398438 25.234375 67.132812 24.699219 67.875 24.152344 L 64.957031 24.820312 C 65.699219 25.355469 66.433594 25.890625 67.175781 26.441406 C 67.351562 26.570312 67.789062 26.527344 67.972656 26.503906 C 68.324219 26.460938 68.664062 26.386719 69 26.285156 C 69.230469 26.21875 70.390625 25.871094 70.257812 25.488281 L 69.40625 22.871094 L 69.253906 23.144531 L 71.472656 21.527344 C 71.898438 21.210938 71.34375 21.066406 71.078125 21.066406 C 70.160156 21.066406 69.253906 21.066406 68.335938 21.066406 L 68.882812 21.253906 C 68.597656 20.378906 68.3125 19.511719 68.027344 18.636719 C 67.972656 18.460938 67.601562 18.453125 67.480469 18.453125 C 67.109375 18.453125 66.683594 18.527344 66.324219 18.625 C 65.960938 18.726562 65.566406 18.855469 65.238281 19.054688 C 65.121094 19.128906 64.800781 19.304688 64.855469 19.492188 Z M 64.855469 19.46875 "/>
<path style=" stroke:none;fill-rule:nonzero;fill:rgb(100%,100%,100%);fill-opacity:1;" d="M 42.15625 64.15625 L 42.144531 77.976562 "/>
<path style=" stroke:none;fill-rule:nonzero;fill:rgb(73.72549%,0%,17.254902%);fill-opacity:1;" d="M 40.582031 64.574219 C 40.582031 68.597656 40.582031 72.625 40.570312 76.652344 L 40.570312 78.390625 C 40.570312 79.289062 43.730469 78.71875 43.742188 77.539062 C 43.742188 73.511719 43.742188 69.484375 43.753906 65.457031 L 43.753906 63.71875 C 43.753906 62.820312 40.59375 63.390625 40.582031 64.574219 Z M 40.582031 64.574219 "/>
<path style=" stroke:none;fill-rule:nonzero;fill:rgb(100%,100%,100%);fill-opacity:1;" d="M 89.253906 46.101562 C 89.253906 45.761719 89.320312 45.390625 89.460938 44.996094 C 89.59375 44.601562 89.789062 44.230469 90.03125 43.871094 C 90.269531 43.507812 90.554688 43.214844 90.90625 42.972656 C 91.242188 42.730469 91.605469 42.613281 91.976562 42.613281 C 91.976562 44.832031 92.371094 46.582031 93.15625 47.863281 C 93.945312 49.144531 95.027344 50.128906 96.417969 50.816406 C 97.804688 51.507812 99.378906 51.96875 101.164062 52.207031 C 102.933594 52.449219 104.859375 52.625 106.902344 52.722656 C 107.582031 52.6875 108.488281 52.667969 109.59375 52.644531 C 110.707031 52.625 111.769531 52.515625 112.796875 52.285156 C 113.824219 52.066406 114.6875 51.695312 115.410156 51.179688 C 116.132812 50.664062 116.472656 49.878906 116.4375 48.816406 C 116.4375 48.335938 116.417969 47.90625 116.382812 47.535156 C 116.351562 47.164062 116.273438 46.824219 116.15625 46.539062 C 116.035156 46.246094 115.828125 45.972656 115.542969 45.699219 C 115.246094 45.425781 114.851562 45.148438 114.339844 44.875 L 99.117188 36.570312 C 98.570312 36.265625 98.046875 35.882812 97.53125 35.421875 C 97.019531 34.964844 96.589844 34.449219 96.253906 33.878906 C 95.914062 33.3125 95.640625 32.71875 95.433594 32.085938 C 95.222656 31.449219 95.125 30.828125 95.125 30.214844 C 95.125 28.914062 95.476562 27.851562 96.175781 27.03125 C 96.875 26.210938 97.75 25.554688 98.789062 25.0625 C 99.828125 24.570312 100.953125 24.21875 102.167969 24.011719 C 103.382812 23.800781 104.496094 23.703125 105.527344 23.703125 C 106.007812 23.703125 106.621094 23.746094 107.375 23.835938 C 108.128906 23.921875 108.925781 24.054688 109.78125 24.21875 C 110.632812 24.394531 111.472656 24.613281 112.316406 24.886719 C 113.160156 25.160156 113.902344 25.507812 114.546875 25.9375 C 115.191406 26.363281 115.738281 26.855469 116.164062 27.425781 C 116.59375 27.992188 116.8125 28.648438 116.8125 29.394531 C 116.328125 29.667969 115.847656 29.753906 115.34375 29.644531 C 114.84375 29.535156 114.351562 29.351562 113.835938 29.078125 C 113.324219 28.804688 112.796875 28.496094 112.25 28.15625 C 111.703125 27.816406 111.136719 27.480469 110.554688 27.128906 C 109.976562 26.789062 109.363281 26.515625 108.707031 26.308594 C 108.050781 26.101562 107.375 26.035156 106.652344 26.101562 C 106.007812 26.101562 105.164062 26.132812 104.136719 26.199219 C 103.109375 26.265625 102.113281 26.429688 101.140625 26.691406 C 100.167969 26.953125 99.324219 27.335938 98.625 27.871094 C 97.925781 28.398438 97.574219 29.140625 97.574219 30.105469 C 97.574219 31.066406 97.902344 31.878906 98.550781 32.644531 C 99.195312 33.410156 100.078125 34.152344 101.183594 34.855469 C 102.300781 35.554688 103.546875 36.222656 104.925781 36.855469 C 106.3125 37.492188 107.710938 38.136719 109.125 38.804688 C 110.535156 39.472656 111.921875 40.160156 113.277344 40.882812 C 114.632812 41.605469 115.804688 42.394531 116.8125 43.246094 C 117.816406 44.101562 118.605469 45.019531 119.171875 45.992188 C 119.742188 46.964844 119.9375 48.070312 119.761719 49.296875 C 119.589844 50.523438 119.0625 51.585938 118.179688 52.480469 C 117.292969 53.367188 116.164062 54.066406 114.796875 54.558594 C 113.433594 55.054688 111.910156 55.382812 110.238281 55.535156 C 108.566406 55.6875 106.835938 55.675781 105.066406 55.511719 C 103.292969 55.335938 101.535156 55.019531 99.785156 54.539062 C 98.046875 54.058594 96.449219 53.421875 95.015625 52.613281 C 93.585938 51.8125 92.347656 50.871094 91.320312 49.789062 C 90.292969 48.707031 89.613281 47.492188 89.265625 46.125 Z M 89.253906 46.101562 "/>
<path style=" stroke:none;fill-rule:nonzero;fill:rgb(100%,100%,100%);fill-opacity:1;" d="M 122.167969 44.777344 C 122.167969 42.894531 122.585938 41.253906 123.394531 39.855469 C 124.214844 38.453125 125.285156 37.273438 126.621094 36.320312 C 127.953125 35.367188 129.453125 34.65625 131.101562 34.1875 C 132.753906 33.714844 134.425781 33.496094 136.101562 33.496094 C 136.988281 33.496094 137.816406 33.660156 138.582031 33.988281 C 139.347656 34.316406 140.09375 34.753906 140.792969 35.324219 C 141.492188 35.894531 142.113281 36.539062 142.660156 37.273438 C 143.207031 38.003906 143.679688 38.769531 144.074219 39.558594 C 144.464844 40.347656 144.761719 41.144531 144.96875 41.945312 C 145.175781 42.742188 145.277344 43.53125 145.277344 44.273438 C 145.277344 46.015625 144.9375 47.578125 144.246094 48.945312 C 143.570312 50.316406 142.640625 51.464844 141.480469 52.40625 C 140.320312 53.347656 139 54.066406 137.535156 54.558594 C 136.066406 55.054688 134.558594 55.304688 133.027344 55.304688 C 131.496094 55.304688 130.011719 55.054688 128.699219 54.558594 C 127.386719 54.066406 126.238281 53.367188 125.265625 52.480469 C 124.289062 51.59375 123.523438 50.488281 122.976562 49.175781 C 122.429688 47.863281 122.160156 46.398438 122.160156 44.789062 Z M 124.683594 44.363281 C 124.683594 45.425781 124.882812 46.441406 125.273438 47.414062 C 125.667969 48.390625 126.214844 49.230469 126.914062 49.953125 C 127.613281 50.675781 128.445312 51.246094 129.398438 51.671875 C 130.359375 52.097656 131.375 52.316406 132.46875 52.316406 C 133.050781 52.382812 133.761719 52.296875 134.601562 52.03125 C 135.445312 51.769531 136.277344 51.398438 137.117188 50.90625 C 137.960938 50.414062 138.757812 49.8125 139.523438 49.113281 C 140.289062 48.410156 140.933594 47.644531 141.449219 46.800781 C 141.960938 45.960938 142.277344 45.09375 142.398438 44.1875 C 142.519531 43.277344 142.367188 42.371094 141.941406 41.472656 C 141.515625 40.566406 140.738281 39.703125 139.609375 38.859375 C 138.484375 38.015625 136.933594 37.238281 134.941406 36.527344 C 133.816406 36.527344 132.644531 36.691406 131.429688 37.019531 C 130.21875 37.347656 129.113281 37.832031 128.128906 38.488281 C 127.132812 39.132812 126.3125 39.953125 125.667969 40.949219 C 125.023438 41.945312 124.695312 43.082031 124.695312 44.382812 Z M 124.683594 44.363281 "/>
<path style=" stroke:none;fill-rule:nonzero;fill:rgb(100%,100%,100%);fill-opacity:1;" d="M 148.875 54.824219 C 148.535156 52.394531 148.316406 49.976562 148.226562 47.570312 C 148.140625 45.160156 148.097656 42.742188 148.097656 40.3125 C 148.097656 37.886719 148.128906 35.476562 148.195312 33.082031 C 148.261719 30.683594 148.28125 28.289062 148.25 25.902344 C 148.25 25.628906 148.347656 25.445312 148.554688 25.335938 C 148.765625 25.226562 149.003906 25.179688 149.277344 25.179688 C 149.582031 25.179688 149.855469 25.289062 150.097656 25.507812 C 150.339844 25.726562 150.546875 26 150.710938 26.332031 C 150.886719 26.660156 151.003906 26.976562 151.09375 27.304688 C 151.179688 27.632812 151.222656 27.894531 151.222656 28.101562 C 151.433594 32.992188 151.5625 37.074219 151.640625 40.335938 C 151.707031 43.597656 151.707031 46.234375 151.640625 48.234375 C 151.574219 50.238281 151.464844 51.714844 151.3125 52.667969 C 151.160156 53.628906 150.960938 54.277344 150.722656 54.613281 C 150.480469 54.953125 150.195312 55.097656 149.878906 55.03125 C 149.550781 54.964844 149.222656 54.898438 148.882812 54.824219 Z M 148.875 54.824219 "/>
<path style=" stroke:none;fill-rule:nonzero;fill:rgb(100%,100%,100%);fill-opacity:1;" d="M 156.308594 37.492188 L 156.308594 36.726562 C 156.308594 36.351562 156.308594 35.960938 156.332031 35.542969 C 156.351562 35.128906 156.351562 34.746094 156.351562 34.363281 L 156.351562 33.59375 C 156.222656 32.535156 156.527344 32.007812 157.269531 32.007812 C 157.609375 32.007812 157.90625 32.097656 158.144531 32.261719 C 158.386719 32.4375 158.605469 32.6875 158.8125 33.027344 C 158.714844 34.800781 158.792969 36.527344 159.042969 38.179688 C 159.292969 39.84375 159.589844 41.484375 159.917969 43.105469 C 160.246094 44.722656 160.550781 46.363281 160.835938 48.007812 C 161.121094 49.648438 161.273438 51.355469 161.273438 53.136719 C 161.273438 53.621094 161.132812 54.101562 160.835938 54.570312 C 160.542969 55.054688 160.113281 55.292969 159.523438 55.292969 C 159.074219 55.292969 158.691406 54.910156 158.375 54.144531 C 158.058594 53.378906 157.773438 52.40625 157.535156 51.222656 C 157.292969 50.042969 157.085938 48.738281 156.921875 47.296875 C 156.757812 45.851562 156.625 44.484375 156.539062 43.167969 C 156.453125 41.855469 156.398438 40.675781 156.363281 39.636719 C 156.332031 38.597656 156.308594 37.886719 156.308594 37.5 Z M 156.308594 37.492188 "/>
<path style=" stroke:none;fill-rule:nonzero;fill:rgb(100%,100%,100%);fill-opacity:1;" d="M 163.230469 43.597656 C 163.230469 42.328125 163.394531 41.003906 163.722656 39.59375 C 164.050781 38.191406 164.566406 36.890625 165.265625 35.695312 C 165.964844 34.503906 166.851562 33.519531 167.933594 32.742188 C 169.015625 31.964844 170.339844 31.59375 171.902344 31.59375 C 172.722656 31.59375 173.542969 31.714844 174.363281 31.953125 C 175.183594 32.195312 176.027344 32.535156 176.898438 32.984375 C 177.773438 33.429688 178.671875 33.945312 179.613281 34.546875 C 180.550781 35.148438 181.546875 35.804688 182.609375 36.515625 C 182.738281 35.148438 182.695312 33.738281 182.457031 32.28125 C 182.214844 30.828125 181.910156 29.40625 181.535156 28.003906 C 181.164062 26.605469 180.769531 25.28125 180.390625 24.03125 C 179.996094 22.785156 179.710938 21.667969 179.546875 20.671875 C 179.371094 19.675781 179.359375 18.855469 179.492188 18.210938 C 179.625 17.566406 180.039062 17.148438 180.714844 16.984375 C 181.636719 17.675781 182.433594 18.636719 183.101562 19.886719 C 183.769531 21.132812 184.335938 22.578125 184.816406 24.21875 C 185.296875 25.859375 185.691406 27.609375 186 29.46875 C 186.304688 31.332031 186.566406 33.222656 186.765625 35.136719 C 186.972656 37.054688 187.136719 38.914062 187.257812 40.730469 C 187.375 42.546875 187.507812 44.210938 187.640625 45.730469 C 187.769531 47.25 187.902344 48.554688 188.023438 49.625 C 188.140625 50.699219 188.316406 51.464844 188.558594 51.914062 C 188.558594 52.460938 188.359375 52.796875 187.96875 52.941406 C 187.574219 53.074219 187.167969 53.148438 186.765625 53.148438 C 186.425781 53.148438 186.128906 53.019531 185.890625 52.765625 C 185.648438 52.515625 185.460938 52.207031 185.320312 51.867188 C 185.1875 51.53125 185.058594 51.148438 184.9375 50.71875 C 184.816406 50.292969 184.6875 49.898438 184.554688 49.539062 C 184.421875 49.175781 184.261719 48.882812 184.097656 48.640625 C 183.921875 48.398438 183.703125 48.28125 183.429688 48.28125 C 183.363281 48.28125 183.265625 48.28125 183.144531 48.300781 C 183.023438 48.324219 182.96875 48.34375 182.96875 48.378906 C 182.324219 49.265625 181.558594 50.128906 180.683594 50.972656 C 179.808594 51.8125 178.859375 52.546875 177.820312 53.183594 C 176.78125 53.816406 175.6875 54.320312 174.539062 54.691406 C 173.390625 55.0625 172.242188 55.261719 171.082031 55.261719 C 169.78125 55.261719 168.644531 54.835938 167.671875 53.980469 C 166.699219 53.128906 165.878906 52.097656 165.210938 50.90625 C 164.542969 49.714844 164.050781 48.445312 163.722656 47.109375 C 163.394531 45.773438 163.230469 44.613281 163.230469 43.617188 Z M 166.402344 44.515625 C 166.742188 45.742188 167.046875 46.824219 167.320312 47.742188 C 167.59375 48.664062 167.921875 49.417969 168.316406 49.996094 C 168.710938 50.578125 169.179688 51.015625 169.726562 51.3125 C 170.273438 51.605469 170.996094 51.75 171.882812 51.75 C 172.972656 51.75 174.132812 51.429688 175.371094 50.796875 C 176.59375 50.160156 177.742188 49.351562 178.804688 48.355469 C 179.863281 47.359375 180.738281 46.277344 181.417969 45.09375 C 182.09375 43.914062 182.445312 42.777344 182.445312 41.683594 L 182.445312 40.457031 C 180.628906 38.683594 178.96875 37.402344 177.445312 36.636719 C 175.925781 35.871094 174.570312 35.476562 173.367188 35.457031 C 172.175781 35.433594 171.125 35.707031 170.242188 36.253906 C 169.355469 36.800781 168.621094 37.523438 168.03125 38.410156 C 167.453125 39.296875 167.027344 40.292969 166.753906 41.386719 C 166.480469 42.480469 166.359375 43.519531 166.390625 44.515625 Z M 166.402344 44.515625 "/>
<path style=" stroke:none;fill-rule:nonzero;fill:rgb(100%,100%,100%);fill-opacity:1;" d="M 190.800781 18.714844 L 190.800781 18.179688 C 190.800781 18.023438 190.832031 17.882812 190.898438 17.761719 C 190.964844 17.640625 191.074219 17.511719 191.203125 17.378906 C 191.335938 17.25 191.511719 17.074219 191.71875 16.867188 C 192.089844 17.074219 192.429688 17.433594 192.710938 17.9375 C 192.996094 18.441406 193.238281 19.042969 193.433594 19.710938 C 193.632812 20.378906 193.761719 21.109375 193.871094 21.921875 C 193.96875 22.71875 194.058594 23.507812 194.125 24.285156 C 194.1875 25.0625 194.234375 25.761719 194.253906 26.417969 C 194.277344 27.0625 194.277344 27.597656 194.277344 28.003906 C 194.277344 28.484375 194.242188 28.878906 194.179688 29.1875 C 194.113281 29.492188 193.804688 29.644531 193.257812 29.644531 C 192.8125 29.644531 192.449219 29.394531 192.15625 28.878906 C 191.859375 28.367188 191.628906 27.730469 191.433594 26.953125 C 191.238281 26.175781 191.105469 25.335938 191.019531 24.414062 C 190.929688 23.496094 190.875 22.621094 190.84375 21.800781 C 190.808594 20.980469 190.789062 20.289062 190.789062 19.742188 L 190.789062 18.714844 Z M 190.800781 18.714844 "/>
<path style=" stroke:none;fill-rule:nonzero;fill:rgb(100%,100%,100%);fill-opacity:1;" d="M 196.136719 46.574219 C 196.167969 45.992188 196.34375 45.324219 196.648438 44.570312 C 196.957031 43.816406 197.4375 43.082031 198.082031 42.359375 C 198.726562 41.636719 199.546875 41.003906 200.542969 40.433594 C 201.539062 39.867188 202.707031 39.472656 204.050781 39.230469 C 205.398438 38.988281 206.941406 38.980469 208.667969 39.175781 C 210.394531 39.371094 212.320312 39.898438 214.429688 40.71875 L 214.429688 40.203125 L 214.375 39.746094 C 214.375 38.859375 214.125 37.949219 213.609375 37.03125 C 213.097656 36.113281 212.441406 35.28125 211.640625 34.546875 C 210.84375 33.8125 209.980469 33.210938 209.050781 32.753906 C 208.121094 32.292969 207.234375 32.0625 206.382812 32.0625 C 206.042969 32.0625 205.738281 32.117188 205.484375 32.21875 C 205.234375 32.316406 204.980469 32.445312 204.742188 32.601562 C 204.5 32.753906 204.269531 32.894531 204.050781 33.015625 C 203.832031 33.136719 203.5625 33.191406 203.253906 33.191406 C 203.1875 33.191406 203.15625 33.167969 203.15625 33.136719 C 203.125 33.101562 203.089844 33.070312 203.058594 33.039062 C 202.992188 32.972656 202.894531 32.882812 202.773438 32.785156 C 202.652344 32.6875 202.597656 32.609375 202.597656 32.578125 C 202.597656 31.964844 202.707031 31.429688 202.925781 30.992188 C 203.144531 30.542969 203.453125 30.191406 203.84375 29.917969 C 204.238281 29.644531 204.6875 29.425781 205.179688 29.273438 C 205.671875 29.121094 206.195312 29.042969 206.742188 29.042969 C 208.109375 29.175781 209.421875 29.601562 210.667969 30.300781 C 211.914062 31.003906 213.0625 31.886719 214.101562 32.9375 C 215.140625 34 216.058594 35.226562 216.847656 36.605469 C 217.632812 37.984375 218.289062 39.425781 218.816406 40.914062 C 219.339844 42.402344 219.691406 43.902344 219.863281 45.402344 C 220.074219 46.976562 220.082031 48.445312 219.917969 49.8125 C 219.886719 49.8125 219.789062 49.8125 219.613281 49.789062 C 219.4375 49.769531 219.253906 49.757812 219.046875 49.734375 C 218.835938 49.714844 218.671875 49.691406 218.53125 49.660156 L 218.28125 49.605469 C 217.558594 47.996094 216.757812 46.691406 215.875 45.707031 C 214.988281 44.710938 214.101562 43.9375 213.238281 43.378906 C 212.375 42.820312 211.554688 42.425781 210.800781 42.195312 C 210.046875 41.976562 209.433594 41.8125 208.953125 41.703125 C 208.4375 41.703125 207.835938 41.738281 207.136719 41.800781 C 206.4375 41.867188 205.714844 41.988281 204.960938 42.164062 C 204.207031 42.339844 203.453125 42.566406 202.675781 42.851562 C 201.910156 43.148438 201.21875 43.5 200.617188 43.902344 C 200.015625 44.308594 199.546875 44.800781 199.1875 45.371094 C 198.824219 45.9375 198.652344 46.59375 198.652344 47.339844 C 198.652344 48.160156 198.980469 48.847656 199.625 49.417969 C 200.269531 49.988281 201.054688 50.445312 201.984375 50.808594 C 202.914062 51.167969 203.84375 51.421875 204.808594 51.550781 C 205.769531 51.683594 206.535156 51.757812 207.113281 51.757812 C 208.078125 51.757812 209.007812 51.703125 209.9375 51.605469 C 210.867188 51.507812 211.773438 51.386719 212.679688 51.246094 C 213.589844 51.113281 214.484375 50.992188 215.371094 50.882812 C 216.257812 50.773438 217.140625 50.730469 218.039062 50.730469 L 218.398438 50.730469 C 218.574219 50.730469 218.75 50.730469 218.9375 50.753906 C 219.121094 50.773438 219.296875 50.773438 219.449219 50.773438 L 219.777344 50.773438 C 220.050781 50.871094 220.203125 51.027344 220.238281 51.234375 C 220.269531 51.441406 220.292969 51.648438 220.292969 51.847656 C 220.292969 52.042969 220.074219 52.273438 219.644531 52.515625 C 219.21875 52.753906 218.664062 52.996094 217.984375 53.238281 C 217.304688 53.476562 216.539062 53.730469 215.699219 53.980469 C 214.855469 54.230469 214.058594 54.449219 213.292969 54.625 C 212.527344 54.800781 211.804688 54.945312 211.140625 55.0625 C 210.472656 55.183594 210 55.238281 209.726562 55.238281 C 208.296875 55.238281 206.777344 55.117188 205.167969 54.878906 C 203.5625 54.636719 202.09375 54.199219 200.761719 53.566406 C 199.425781 52.929688 198.324219 52.054688 197.457031 50.929688 C 196.59375 49.800781 196.144531 48.34375 196.144531 46.574219 Z M 196.136719 46.574219 "/>
<path style=" stroke:none;fill-rule:nonzero;fill:rgb(100%,100%,100%);fill-opacity:1;" d="M 227.355469 55.238281 C 226.601562 53.871094 225.957031 52.382812 225.410156 50.773438 C 224.863281 49.167969 224.402344 47.546875 224.019531 45.90625 C 223.636719 44.265625 223.34375 42.667969 223.125 41.113281 C 222.90625 39.558594 222.753906 38.148438 222.6875 36.878906 C 222.6875 36.636719 222.664062 36.375 222.632812 36.078125 C 222.597656 35.785156 222.589844 35.488281 222.609375 35.183594 C 222.632812 34.875 222.675781 34.582031 222.761719 34.308594 C 222.851562 34.035156 222.992188 33.792969 223.199219 33.585938 L 223.296875 33.585938 C 223.296875 33.585938 223.351562 33.585938 223.351562 33.5625 C 223.351562 33.539062 223.375 33.539062 223.40625 33.539062 C 223.441406 33.539062 223.460938 33.539062 223.460938 33.5625 C 223.460938 33.585938 223.496094 33.585938 223.5625 33.585938 L 223.660156 33.585938 C 223.726562 33.617188 223.898438 33.683594 224.171875 33.792969 C 224.445312 33.902344 224.621094 33.980469 224.6875 34.042969 C 225.300781 33.835938 225.933594 33.59375 226.578125 33.300781 C 227.222656 33.003906 227.890625 32.730469 228.546875 32.480469 C 229.203125 32.226562 229.894531 32.007812 230.570312 31.832031 C 231.25 31.660156 231.914062 31.582031 232.570312 31.582031 C 233.054688 31.582031 233.46875 31.605469 233.828125 31.636719 C 234.191406 31.667969 234.550781 31.734375 234.902344 31.8125 C 235.261719 31.898438 235.644531 32 236.050781 32.117188 C 236.464844 32.238281 236.933594 32.382812 237.480469 32.554688 C 237.753906 32.765625 238.007812 32.960938 238.226562 33.148438 C 238.445312 33.332031 238.652344 33.550781 238.835938 33.792969 C 239.023438 34.035156 239.164062 34.316406 239.273438 34.667969 C 239.375 35.007812 239.429688 35.457031 239.429688 36.003906 C 238.882812 36.070312 238.238281 36.023438 237.503906 35.871094 C 236.769531 35.71875 235.996094 35.519531 235.195312 35.28125 C 234.398438 35.039062 233.566406 34.832031 232.714844 34.667969 C 231.859375 34.492188 231.039062 34.425781 230.253906 34.460938 C 229.464844 34.492188 228.734375 34.710938 228.042969 35.128906 C 227.324219 35.464844 226.699219 36.089844 226.152344 36.976562 C 225.914062 37.972656 225.8125 38.945312 225.847656 39.898438 C 225.878906 40.859375 226 41.792969 226.207031 42.6875 C 226.414062 43.597656 226.679688 44.503906 227.007812 45.402344 C 227.332031 46.308594 227.640625 47.21875 227.925781 48.117188 C 228.21875 49.023438 228.480469 49.921875 228.722656 50.808594 C 228.964844 51.695312 229.117188 52.601562 229.183594 53.519531 C 229.183594 53.859375 228.996094 54.230469 228.613281 54.625 C 228.242188 55.019531 227.816406 55.21875 227.332031 55.21875 Z M 227.355469 55.238281 "/>
<path style=" stroke:none;fill-rule:nonzero;fill:rgb(100%,100%,100%);fill-opacity:1;" d="M 246.886719 37.589844 L 245.453125 37.589844 C 244.777344 37.589844 244.066406 37.535156 243.320312 37.414062 C 242.589844 37.292969 241.921875 37.097656 241.320312 36.824219 C 240.71875 36.550781 240.421875 36.15625 240.421875 35.640625 C 240.421875 35.511719 240.445312 35.3125 240.5 35.050781 C 240.554688 34.789062 240.71875 34.667969 240.992188 34.667969 L 246.273438 34.207031 C 246.40625 32.9375 246.515625 31.910156 246.578125 31.101562 C 246.644531 30.300781 246.667969 29.546875 246.632812 28.847656 C 246.601562 28.144531 246.558594 27.414062 246.503906 26.636719 C 246.449219 25.859375 246.40625 24.863281 246.371094 23.636719 C 246.371094 23.398438 246.425781 23.210938 246.527344 23.070312 C 246.625 22.9375 246.753906 22.828125 246.90625 22.761719 C 247.0625 22.699219 247.234375 22.644531 247.421875 22.609375 C 247.609375 22.578125 247.75 22.554688 247.859375 22.554688 C 248.066406 22.554688 248.273438 22.621094 248.503906 22.761719 C 248.722656 22.894531 248.921875 23.070312 249.09375 23.277344 C 249.269531 23.484375 249.402344 23.691406 249.511719 23.921875 C 249.609375 24.140625 249.664062 24.359375 249.664062 24.570312 L 250.078125 34.164062 L 254.484375 34.371094 C 255.066406 34.308594 255.601562 34.417969 256.105469 34.699219 C 256.597656 34.996094 256.871094 35.53125 256.902344 36.320312 C 256.488281 36.769531 255.996094 37.03125 255.414062 37.117188 C 254.835938 37.207031 254.222656 37.238281 253.601562 37.21875 C 252.964844 37.195312 252.34375 37.195312 251.730469 37.21875 C 251.117188 37.238281 250.570312 37.390625 250.089844 37.710938 C 250.089844 37.917969 250.113281 38.476562 250.144531 39.40625 C 250.179688 40.335938 250.210938 41.417969 250.242188 42.6875 C 250.277344 43.957031 250.320312 45.304688 250.375 46.738281 C 250.429688 48.171875 250.472656 49.496094 250.503906 50.707031 C 250.539062 51.921875 250.558594 52.964844 250.582031 53.816406 C 250.605469 54.667969 250.605469 55.152344 250.605469 55.25 C 249.816406 55.730469 249.183594 55.6875 248.710938 55.117188 C 248.242188 54.550781 247.847656 53.71875 247.5625 52.601562 C 247.269531 51.484375 247.070312 50.195312 246.953125 48.707031 C 246.832031 47.21875 246.765625 45.753906 246.742188 44.296875 C 246.722656 42.839844 246.742188 41.507812 246.765625 40.269531 C 246.789062 39.035156 246.851562 38.148438 246.917969 37.601562 Z M 246.886719 37.589844 "/>
<path style=" stroke:none;fill-rule:nonzero;fill:rgb(100%,100%,100%);fill-opacity:1;" d="M 277.789062 41.496094 C 277.789062 39.722656 278.050781 38.015625 278.585938 36.398438 C 279.113281 34.777344 279.890625 33.34375 280.894531 32.117188 C 281.902344 30.894531 283.136719 29.90625 284.589844 29.164062 C 286.046875 28.429688 287.730469 28.058594 289.644531 28.058594 C 290.769531 28.191406 291.753906 28.507812 292.597656 28.976562 C 293.4375 29.460938 294.117188 30.050781 294.652344 30.75 C 295.175781 31.449219 295.570312 32.261719 295.800781 33.191406 C 296.007812 34.078125 296.105469 35.039062 296.105469 36.058594 C 296.105469 37.28125 295.746094 38.398438 295.035156 39.394531 C 294.3125 40.390625 293.414062 41.210938 292.324219 41.878906 C 291.230469 42.546875 290.046875 43.058594 288.789062 43.421875 C 287.53125 43.78125 286.351562 43.957031 285.257812 43.957031 L 284 43.957031 C 283.574219 43.957031 283.191406 43.890625 282.851562 43.75 C 282.511719 43.617188 282.238281 43.410156 282.03125 43.136719 C 281.824219 42.863281 281.726562 42.457031 281.726562 41.910156 C 281.726562 41.738281 281.746094 41.59375 281.800781 41.472656 C 281.855469 41.351562 282 41.265625 282.238281 41.222656 C 282.480469 41.179688 282.839844 41.167969 283.3125 41.199219 C 283.792969 41.265625 284.4375 41.375 285.257812 41.507812 C 285.738281 41.507812 286.429688 41.34375 287.335938 41.015625 C 288.242188 40.6875 289.164062 40.269531 290.101562 39.757812 C 291.042969 39.242188 291.851562 38.652344 292.542969 37.984375 C 293.230469 37.316406 293.570312 36.660156 293.570312 36.015625 C 293.570312 35.335938 293.460938 34.65625 293.242188 33.988281 C 293.023438 33.320312 292.683594 32.730469 292.246094 32.21875 C 291.808594 31.703125 291.285156 31.296875 290.683594 30.992188 C 290.082031 30.683594 289.414062 30.566406 288.660156 30.628906 C 287.46875 30.730469 286.375 31.058594 285.398438 31.605469 C 284.425781 32.152344 283.597656 32.863281 282.917969 33.738281 C 282.238281 34.613281 281.703125 35.574219 281.332031 36.636719 C 280.960938 37.699219 280.765625 38.804688 280.765625 39.976562 C 280.765625 40.859375 280.785156 41.746094 280.820312 42.644531 C 280.851562 43.53125 280.984375 44.40625 281.203125 45.261719 C 281.421875 46.113281 281.78125 46.933594 282.273438 47.722656 C 282.765625 48.507812 283.488281 49.199219 284.425781 49.800781 C 285.367188 50.402344 286.558594 50.894531 287.992188 51.289062 C 289.425781 51.683594 291.207031 51.933594 293.328125 52.03125 L 302.503906 51.421875 C 301.957031 52.175781 301.265625 52.789062 300.425781 53.269531 C 299.582031 53.75 298.699219 54.132812 297.757812 54.417969 C 296.816406 54.714844 295.886719 54.921875 294.96875 55.0625 C 294.050781 55.195312 293.175781 55.273438 292.355469 55.273438 C 290.375 55.273438 288.507812 54.945312 286.765625 54.296875 C 285.027344 53.652344 283.488281 52.734375 282.152344 51.550781 C 280.820312 50.371094 279.769531 48.9375 279.003906 47.242188 C 278.238281 45.542969 277.855469 43.640625 277.855469 41.519531 Z M 277.789062 41.496094 "/>
<path style=" stroke:none;fill-rule:nonzero;fill:rgb(100%,100%,100%);fill-opacity:1;" d="M 310.859375 37.589844 L 309.425781 37.589844 C 308.746094 37.589844 308.035156 37.535156 307.292969 37.414062 C 306.558594 37.292969 305.894531 37.097656 305.292969 36.824219 C 304.691406 36.550781 304.394531 36.15625 304.394531 35.640625 C 304.394531 35.511719 304.417969 35.3125 304.472656 35.050781 C 304.527344 34.789062 304.691406 34.667969 304.964844 34.667969 L 310.246094 34.207031 C 310.375 32.9375 310.484375 31.910156 310.550781 31.101562 C 310.617188 30.300781 310.640625 29.546875 310.605469 28.847656 C 310.574219 28.144531 310.53125 27.414062 310.476562 26.636719 C 310.421875 25.859375 310.375 24.863281 310.34375 23.636719 C 310.34375 23.398438 310.398438 23.210938 310.496094 23.070312 C 310.59375 22.9375 310.726562 22.828125 310.878906 22.761719 C 311.03125 22.699219 311.207031 22.644531 311.394531 22.609375 C 311.578125 22.578125 311.722656 22.554688 311.832031 22.554688 C 312.039062 22.554688 312.246094 22.621094 312.476562 22.761719 C 312.695312 22.894531 312.890625 23.070312 313.066406 23.277344 C 313.242188 23.484375 313.371094 23.691406 313.480469 23.921875 C 313.582031 24.140625 313.636719 24.359375 313.636719 24.570312 L 314.050781 34.164062 L 318.457031 34.371094 C 319.039062 34.308594 319.574219 34.417969 320.078125 34.699219 C 320.566406 34.996094 320.839844 35.53125 320.875 36.320312 C 320.457031 36.769531 319.96875 37.03125 319.386719 37.117188 C 318.808594 37.207031 318.195312 37.238281 317.570312 37.21875 C 316.9375 37.195312 316.316406 37.195312 315.703125 37.21875 C 315.089844 37.238281 314.542969 37.390625 314.0625 37.710938 C 314.0625 37.917969 314.082031 38.476562 314.117188 39.40625 C 314.148438 40.335938 314.183594 41.417969 314.214844 42.6875 C 314.246094 43.957031 314.292969 45.304688 314.347656 46.738281 C 314.402344 48.171875 314.445312 49.496094 314.476562 50.707031 C 314.511719 51.921875 314.53125 52.964844 314.554688 53.816406 C 314.574219 54.667969 314.574219 55.152344 314.574219 55.25 C 313.789062 55.730469 313.152344 55.6875 312.683594 55.117188 C 312.214844 54.550781 311.820312 53.71875 311.535156 52.601562 C 311.242188 51.484375 311.042969 50.195312 310.921875 48.707031 C 310.804688 47.21875 310.738281 45.753906 310.714844 44.296875 C 310.695312 42.839844 310.714844 41.507812 310.738281 40.269531 C 310.757812 39.035156 310.824219 38.148438 310.890625 37.601562 Z M 310.859375 37.589844 "/>
<path style=" stroke:none;fill-rule:nonzero;fill:rgb(100%,100%,100%);fill-opacity:1;" d="M 356.984375 26.722656 C 354.589844 26.722656 352.117188 26.558594 349.578125 26.230469 C 347.03125 25.902344 344.605469 25.554688 342.273438 25.179688 C 341.96875 25.246094 341.726562 25.203125 341.554688 25.050781 C 341.378906 24.898438 341.246094 24.6875 341.136719 24.4375 C 341.027344 24.183594 340.972656 23.933594 340.960938 23.691406 C 340.941406 23.453125 340.941406 23.265625 340.941406 23.125 L 343.609375 23.125 C 344.878906 23.125 346.363281 23.144531 348.09375 23.179688 C 349.820312 23.210938 351.699219 23.265625 353.734375 23.332031 C 355.769531 23.398438 357.8125 23.507812 359.859375 23.636719 C 361.914062 23.769531 363.894531 23.933594 365.808594 24.128906 C 367.722656 24.316406 369.417969 24.558594 370.902344 24.851562 C 372.390625 25.148438 373.570312 25.476562 374.4375 25.847656 C 375.308594 26.21875 375.746094 26.648438 375.746094 27.128906 C 375.746094 27.46875 375.691406 27.816406 375.59375 28.15625 C 375.496094 28.496094 375.234375 28.671875 374.828125 28.671875 C 373.5625 28.605469 372.3125 28.421875 371.089844 28.101562 C 369.863281 27.785156 368.628906 27.5 367.394531 27.207031 C 366.167969 26.910156 364.910156 26.714844 363.621094 26.59375 C 362.339844 26.472656 361.027344 26.613281 359.695312 27.03125 C 359.695312 28.605469 359.792969 30.335938 359.980469 32.207031 C 360.164062 34.089844 360.394531 36.003906 360.644531 37.949219 C 360.898438 39.898438 361.191406 41.847656 361.519531 43.792969 C 361.847656 45.742188 362.167969 47.570312 362.472656 49.285156 C 362.539062 49.734375 362.691406 50.160156 362.910156 50.597656 C 363.128906 51.027344 363.359375 51.441406 363.597656 51.824219 C 363.839844 52.21875 364.046875 52.625 364.210938 53.027344 C 364.375 53.433594 364.460938 53.847656 364.460938 54.253906 C 364.460938 54.527344 364.375 54.746094 364.210938 54.898438 C 364.046875 55.054688 363.839844 55.152344 363.597656 55.207031 C 363.359375 55.261719 363.105469 55.28125 362.832031 55.28125 L 362.167969 55.28125 C 361.488281 55.28125 360.941406 55.007812 360.546875 54.460938 C 360.152344 53.914062 359.859375 53.269531 359.652344 52.535156 C 359.441406 51.804688 359.3125 51.039062 359.234375 50.25 C 359.167969 49.460938 359.105469 48.828125 359.027344 48.355469 C 358.753906 46.472656 358.515625 44.65625 358.304688 42.894531 C 358.097656 41.132812 357.921875 39.371094 357.769531 37.609375 C 357.617188 35.851562 357.476562 34.078125 357.355469 32.273438 C 357.234375 30.464844 357.101562 28.617188 356.972656 26.703125 Z M 356.984375 26.722656 "/>
<path style=" stroke:none;fill-rule:nonzero;fill:rgb(100%,100%,100%);fill-opacity:1;" d="M 373.648438 71.234375 L 373.648438 70.546875 C 373.648438 70.328125 373.679688 70.132812 373.746094 69.976562 C 373.8125 69.824219 373.921875 69.691406 374.054688 69.59375 C 374.261719 69.527344 374.5 69.496094 374.773438 69.496094 C 375.289062 70.078125 375.945312 70.820312 376.742188 71.726562 C 377.542969 72.636719 378.460938 73.511719 379.488281 74.367188 C 380.515625 75.21875 381.585938 75.972656 382.714844 76.621094 C 383.839844 77.265625 384.988281 77.59375 386.148438 77.59375 C 387.109375 77.5625 387.917969 77.308594 388.609375 76.847656 C 389.296875 76.390625 389.875 75.777344 390.347656 75.03125 C 390.828125 74.277344 391.222656 73.425781 391.527344 72.472656 C 391.832031 71.507812 392.085938 70.535156 392.269531 69.550781 C 392.457031 68.554688 392.597656 67.601562 392.6875 66.683594 C 392.773438 65.765625 392.863281 64.957031 392.972656 64.277344 C 393.035156 63.9375 393.113281 63.359375 393.199219 62.558594 C 393.289062 61.761719 393.375 60.863281 393.453125 59.890625 C 393.527344 58.914062 393.605469 57.898438 393.660156 56.835938 C 393.714844 55.773438 393.703125 54.8125 393.636719 53.9375 C 393.574219 53.0625 393.429688 52.351562 393.222656 51.78125 C 393.015625 51.210938 392.707031 50.9375 392.304688 50.9375 C 391.722656 50.9375 391.113281 51.113281 390.457031 51.453125 C 389.8125 51.792969 389.132812 52.175781 388.433594 52.601562 C 387.734375 53.027344 387.023438 53.410156 386.300781 53.75 C 385.578125 54.089844 384.878906 54.265625 384.199219 54.265625 C 382.898438 54.265625 381.71875 54.003906 380.636719 53.464844 C 379.5625 52.941406 378.578125 52.242188 377.683594 51.386719 C 376.796875 50.535156 376.011719 49.539062 375.320312 48.390625 C 374.644531 47.242188 374.0625 46.058594 373.605469 44.820312 C 373.144531 43.585938 372.804688 42.359375 372.578125 41.125 C 372.347656 39.886719 372.25 38.726562 372.25 37.632812 C 372.25 37.390625 372.226562 37 372.171875 36.453125 C 372.117188 35.90625 372.128906 35.335938 372.195312 34.753906 C 372.257812 34.175781 372.414062 33.660156 372.652344 33.210938 C 372.894531 32.765625 373.265625 32.546875 373.78125 32.546875 C 373.910156 32.546875 374.03125 32.820312 374.109375 33.367188 C 374.195312 33.914062 374.292969 34.625 374.414062 35.5 C 374.535156 36.375 374.6875 37.371094 374.871094 38.496094 C 375.058594 39.625 375.308594 40.773438 375.617188 41.933594 C 375.921875 43.09375 376.292969 44.242188 376.742188 45.371094 C 377.191406 46.496094 377.738281 47.503906 378.382812 48.367188 C 379.027344 49.230469 379.804688 49.953125 380.710938 50.5 C 381.621094 51.046875 382.648438 51.320312 383.816406 51.320312 C 384.574219 51.320312 385.359375 51.15625 386.179688 50.828125 C 387 50.5 387.777344 50.085938 388.507812 49.570312 C 389.242188 49.058594 389.921875 48.476562 390.53125 47.832031 C 391.144531 47.152344 391.625 46.484375 391.964844 45.828125 C 391.964844 45.699219 391.941406 45.371094 391.910156 44.855469 C 391.878906 44.339844 391.84375 43.75 391.8125 43.082031 C 391.777344 42.414062 391.746094 41.691406 391.714844 40.90625 C 391.679688 40.117188 391.648438 39.371094 391.613281 38.671875 C 391.582031 37.972656 391.558594 37.359375 391.539062 36.855469 C 391.515625 36.351562 391.515625 36.015625 391.515625 35.882812 C 391.582031 33.792969 391.734375 32.523438 391.976562 32.0625 C 392.214844 31.605469 392.5 31.746094 392.851562 32.5 C 393.191406 33.257812 393.550781 34.515625 393.921875 36.296875 C 394.292969 38.070312 394.644531 40.148438 394.972656 42.535156 C 395.300781 44.910156 395.550781 47.503906 395.738281 50.304688 C 395.921875 53.105469 396 55.917969 395.96875 58.742188 C 395.933594 61.5625 395.75 64.289062 395.429688 66.925781 C 395.101562 69.5625 394.589844 71.894531 393.867188 73.929688 C 393.144531 75.964844 392.207031 77.617188 391.046875 78.875 C 389.886719 80.144531 388.445312 80.808594 386.738281 80.875 C 386.058594 80.875 385.238281 80.746094 384.300781 80.492188 C 383.359375 80.242188 382.40625 79.878906 381.457031 79.441406 C 380.492188 78.992188 379.554688 78.46875 378.613281 77.855469 C 377.671875 77.242188 376.839844 76.574219 376.097656 75.855469 C 375.355469 75.132812 374.761719 74.386719 374.304688 73.597656 C 373.84375 72.8125 373.617188 72.023438 373.617188 71.234375 Z M 373.648438 71.234375 "/>
<path style=" stroke:none;fill-rule:nonzero;fill:rgb(73.72549%,0%,17.254902%);fill-opacity:1;" d="M 158.726562 21.757812 L 159.578125 24.371094 L 162.324219 24.371094 L 160.105469 25.992188 L 160.945312 28.59375 L 158.726562 26.988281 L 156.507812 28.59375 L 157.359375 25.992188 L 155.128906 24.371094 L 157.871094 24.371094 Z M 158.726562 21.757812 "/>
<path style=" stroke:none;fill-rule:nonzero;fill:rgb(100%,100%,100%);fill-opacity:1;" d="M 157.140625 22.183594 C 157.425781 23.058594 157.707031 23.921875 157.992188 24.796875 C 158.046875 24.972656 158.417969 24.984375 158.539062 24.984375 C 159.457031 24.984375 160.367188 24.984375 161.285156 24.984375 L 160.890625 24.523438 L 158.671875 26.144531 C 158.5625 26.210938 158.519531 26.308594 158.519531 26.417969 L 159.371094 29.03125 L 162.453125 28.082031 C 161.710938 27.542969 160.980469 27.007812 160.234375 26.460938 C 159.90625 26.21875 159.152344 26.429688 158.835938 26.503906 C 158.300781 26.625 157.761719 26.8125 157.316406 27.140625 C 156.570312 27.675781 155.839844 28.210938 155.09375 28.757812 L 158.082031 28.320312 L 158.933594 25.707031 C 158.988281 25.609375 158.964844 25.53125 158.867188 25.476562 C 158.125 24.941406 157.390625 24.402344 156.648438 23.855469 L 154.109375 24.996094 C 155.03125 24.996094 155.9375 24.996094 156.855469 24.996094 C 157.390625 24.996094 157.925781 24.875 158.429688 24.6875 C 158.683594 24.601562 159.359375 24.394531 159.457031 24.085938 C 159.742188 23.210938 160.027344 22.347656 160.3125 21.472656 C 160.476562 20.96875 159.273438 21.1875 159.066406 21.230469 C 158.648438 21.308594 158.234375 21.417969 157.851562 21.601562 C 157.652344 21.691406 157.261719 21.84375 157.195312 22.0625 C 156.910156 22.9375 156.625 23.800781 156.34375 24.679688 L 158.933594 23.78125 C 158.015625 23.78125 157.109375 23.78125 156.1875 23.78125 C 155.542969 23.78125 154.832031 23.957031 154.253906 24.230469 C 154.089844 24.304688 153.3125 24.667969 153.652344 24.917969 C 154.394531 25.453125 155.128906 25.992188 155.871094 26.539062 L 155.804688 26.308594 L 154.953125 28.921875 C 154.800781 29.382812 155.828125 29.21875 156.003906 29.195312 C 156.679688 29.097656 157.378906 28.890625 157.9375 28.484375 C 158.683594 27.949219 159.414062 27.414062 160.160156 26.867188 L 157.238281 27.535156 C 157.980469 28.070312 158.714844 28.605469 159.457031 29.152344 C 159.632812 29.285156 160.070312 29.242188 160.257812 29.21875 C 160.605469 29.175781 160.945312 29.097656 161.285156 29 C 161.515625 28.933594 162.671875 28.585938 162.542969 28.203125 L 161.6875 25.585938 L 161.535156 25.859375 L 163.757812 24.238281 C 164.183594 23.921875 163.625 23.78125 163.363281 23.78125 C 162.445312 23.78125 161.535156 23.78125 160.617188 23.78125 L 161.164062 23.964844 C 160.878906 23.089844 160.597656 22.226562 160.3125 21.351562 C 160.257812 21.175781 159.886719 21.164062 159.765625 21.164062 C 159.394531 21.164062 158.964844 21.242188 158.605469 21.339844 C 158.246094 21.4375 157.851562 21.570312 157.523438 21.765625 C 157.402344 21.84375 157.085938 22.019531 157.140625 22.203125 Z M 157.140625 22.183594 "/>
</g>
</svg>
