<?xml version="1.0" encoding="UTF-8"?>
<svg id="Calque_1" xmlns="http://www.w3.org/2000/svg" viewBox="0 0 142.95 110.91">
  <defs>
    <style>
      .cls-1 {
        fill: #bc002c;
      }

      .cls-2 {
        fill: #fff;
      }
    </style>
  </defs>
  <g>
    <g>
      <path class="cls-2" d="M108.07.6H33.89c1.67,30.95,13.68,54.71,37.09,70.56C91.96,56.44,106.13,34.76,108.07.6Z"/>
      <path class="cls-1" d="M109.01,0H34.83c-.49,0-2.43.22-2.39.98.63,11.29,2.65,22.55,6.82,33.09,3.79,9.6,9.37,18.44,16.49,25.92,4.18,4.38,8.86,8.26,13.86,11.66.59.4,1.97-.09,2.48-.45,8.15-5.74,15.45-12.63,21.25-20.77,6.27-8.8,10.6-18.83,13.16-29.31,1.67-6.86,2.61-13.88,3.02-20.92.02-.42-2.85-.09-2.9.78-.69,11.79-2.9,23.55-7.51,34.47-3.93,9.31-9.57,17.82-16.65,25.03-3.86,3.93-8.09,7.46-12.59,10.63l2.48-.45c-8.78-5.97-16.5-13.45-22.38-22.33s-9.73-18.62-12.03-28.85c-1.43-6.34-2.23-12.8-2.59-19.28l-2.39.98h25.06c13.32,0,26.63,0,39.95,0h9.17c.64,0,1.53-.12,2.05-.55.37-.3.47-.64-.17-.64Z"/>
    </g>
    <g>
      <path class="cls-2" d="M77.22,20.76c0-6.95,6.27-10.74,14.01-10.74s14.01,3.79,14.01,10.74"/>
      <path class="cls-1" d="M78.67,20.37c.04-3.05,1.35-5.82,3.84-7.63s5.79-2.29,8.86-2.14c6.17.3,12.31,3.76,12.41,10.55,0,.4,2.91,0,2.9-.78-.19-12.94-19.82-13.29-27.36-6.91-2.31,1.96-3.51,4.68-3.55,7.69,0,.37,2.89.01,2.9-.78h0Z"/>
    </g>
    <g>
      <path class="cls-2" d="M36.76,20.76c0-6.95,6.27-10.74,14.01-10.74s14.01,3.79,14.01,10.74"/>
      <path class="cls-1" d="M38.22,20.6c.04-2.96,1.22-5.68,3.69-7.4s5.68-2.33,8.69-2.28c6.03.1,12.63,3.17,12.73,10.01.02,1.31,2.92.73,2.91-.32-.19-12.97-19.37-14.26-27.24-7.57-2.35,2-3.64,4.82-3.68,7.89-.02,1.3,2.89.74,2.91-.32h0Z"/>
    </g>
    <g>
      <path class="cls-2" d="M77.22,35.04c0,4.7-2.79,7.27-6.22,7.27s-6.22-2.57-6.22-7.27"/>
      <path class="cls-1" d="M75.76,35.19c-.01,1.42-.23,2.87-.96,4.11-.28.48-.61.89-1.04,1.25.11-.09-.14.1-.17.13-.11.08-.23.15-.34.23-.22.14.08-.03-.15.08-.14.07-.29.13-.44.19-.16.07.03-.01.05-.02-.07.02-.13.04-.2.06-.13.04-.27.07-.4.1-.17.04.02,0,.05-.01-.07,0-.14.02-.21.03-.17.02-.33.03-.5.04.22,0-.22,0-.28-.01-.14,0-.28-.02-.43-.04-.22-.02-.38-.06-.69-.15-.98-.29-1.88-.96-2.52-1.84-.93-1.26-1.28-2.9-1.29-4.45,0-.68-.72-.83-1.29-.77-.47.05-1.63.41-1.62,1.07.03,3.33,1.42,6.5,4.75,7.66,3.03,1.05,6.83.07,8.84-2.46,1.24-1.57,1.76-3.51,1.77-5.49,0-.68-.73-.83-1.29-.77-.48.05-1.62.41-1.62,1.07h0Z"/>
    </g>
    <g>
      <path class="cls-2" d="M45.14,20.76c0-3.11,2.52-4.8,5.62-4.8s5.62,1.7,5.62,4.8"/>
      <path class="cls-1" d="M46.6,20.61c0-.61.08-1.23.34-1.78.09-.19.28-.53.34-.61.08-.1.17-.2.26-.3.03-.04.38-.34.23-.23.1-.08.21-.16.33-.23.02-.01.38-.21.15-.09.14-.07.29-.14.44-.2.1-.04.09-.04-.05.01.09-.03.18-.06.27-.09.48-.14,1-.21,1.48-.2,2.26.04,4.5,1.38,4.54,4,0,.68.72.85,1.3.8.48-.05,1.63-.42,1.62-1.08-.02-1.28-.34-2.5-1.2-3.48-.81-.93-1.96-1.53-3.15-1.84-2.75-.7-6.03-.19-8.15,1.77-1.07.99-1.65,2.39-1.67,3.83,0,.68.73.85,1.3.8.5-.05,1.61-.42,1.62-1.08h0Z"/>
    </g>
    <g>
      <path class="cls-2" d="M79.75,51.55c0,3.11-4.84,6.73-9.35,6.73s-9.48-2.94-9.48-6.05"/>
      <path class="cls-1" d="M78.3,51.71c-.11,3.38-4.52,5.69-7.5,5.68s-8.31-1.87-8.43-5.55c-.03-1.03-2.94-.42-2.9.78.07,2.14,1.98,3.77,3.7,4.75,2.24,1.28,4.89,1.91,7.46,1.77s5.12-1.13,7.16-2.65c1.61-1.2,3.35-2.97,3.41-5.11.04-1.29-2.88-.74-2.91.32h0Z"/>
    </g>
    <path class="cls-1" d="M75.77,21.15v14.29c0,.64,2.9.18,2.9-.78v-14.29c0-.64-2.9-.18-2.9.78h0Z"/>
    <g>
      <polygon class="cls-2" points="93.2 17.3 93.98 19.69 96.49 19.69 94.46 21.17 95.23 23.55 93.2 22.08 91.17 23.55 91.94 21.17 89.91 19.69 92.42 19.69 93.2 17.3"/>
      <path class="cls-1" d="M91.75,17.69c.26.8.52,1.59.78,2.39.05.16.39.17.5.17.84,0,1.67,0,2.51,0l-.36-.42c-.68.49-1.35.98-2.03,1.48-.1.06-.14.15-.14.25l.78,2.39,2.82-.87-2.03-1.48c-.3-.22-.99-.03-1.28.04-.49.11-.98.28-1.39.58l-2.03,1.48,2.73-.4.78-2.39c.05-.09.03-.16-.06-.21-.68-.49-1.35-.98-2.03-1.48l-2.32,1.04c.84,0,1.67,0,2.51,0,.49,0,.98-.11,1.44-.28.23-.08.85-.27.94-.55.26-.8.52-1.59.78-2.39.15-.46-.95-.26-1.14-.22-.38.07-.76.17-1.11.34-.18.08-.54.22-.6.42-.26.8-.52,1.59-.78,2.39l2.37-.82c-.84,0-1.67,0-2.51,0-.59,0-1.24.16-1.77.41-.15.07-.86.4-.55.63.68.49,1.35.98,2.03,1.48l-.06-.21-.78,2.39c-.14.42.8.27.96.25.62-.09,1.26-.28,1.77-.65l2.03-1.48-2.67.61,2.03,1.48c.16.12.56.08.73.06.32-.04.63-.11.94-.2.21-.06,1.27-.38,1.15-.73l-.78-2.39-.14.25c.68-.49,1.35-.98,2.03-1.48.39-.29-.12-.42-.36-.42-.84,0-1.67,0-2.51,0l.5.17c-.26-.8-.52-1.59-.78-2.39-.05-.16-.39-.17-.5-.17-.34,0-.73.07-1.06.16s-.69.21-.99.39c-.11.07-.4.23-.35.4Z"/>
    </g>
    <g>
      <line class="cls-2" x1="71" y1="58.53" x2="70.98" y2="71.16"/>
      <path class="cls-1" d="M69.55,58.91c0,3.68,0,7.36-.01,11.04,0,.53,0,1.06,0,1.59,0,.82,2.9.3,2.9-.78,0-3.68,0-7.36.01-11.04,0-.53,0-1.06,0-1.59,0-.82-2.9-.3-2.9.78h0Z"/>
    </g>
  </g>
  <path class="cls-2" d="M0,94.71c0-.16.03-.33.1-.51.06-.18.15-.36.26-.53.11-.17.25-.31.41-.42.16-.11.33-.17.5-.17,0,1.04.18,1.85.55,2.45.37.6.87,1.06,1.52,1.37.64.32,1.38.53,2.21.64.83.11,1.72.19,2.68.24.32-.02.74-.03,1.25-.04.52,0,1.02-.06,1.49-.17.48-.1.88-.27,1.22-.51s.49-.61.48-1.1c0-.22,0-.42-.02-.6-.02-.18-.05-.33-.11-.47-.06-.14-.15-.27-.29-.39-.14-.13-.32-.25-.56-.38l-7.09-3.87c-.25-.14-.5-.32-.74-.54s-.44-.45-.6-.72c-.16-.26-.29-.54-.38-.84-.1-.29-.14-.59-.14-.87,0-.61.16-1.1.49-1.48.33-.38.73-.69,1.22-.92.49-.23,1.01-.39,1.58-.49s1.09-.14,1.56-.14c.22,0,.51.02.86.06.35.04.72.1,1.12.18.4.08.79.18,1.18.31.39.13.74.29,1.04.49.3.2.55.43.75.69s.3.57.3.92c-.22.13-.45.17-.68.12s-.47-.14-.7-.26c-.24-.13-.49-.27-.74-.43-.25-.16-.52-.32-.79-.48-.27-.16-.56-.29-.86-.38s-.62-.13-.96-.1c-.3,0-.69.02-1.17.05-.48.03-.94.11-1.4.23s-.84.3-1.17.55c-.33.25-.49.59-.49,1.04s.15.82.45,1.18.71.7,1.23,1.03c.52.33,1.1.64,1.74.93.64.29,1.3.6,1.96.91s1.31.63,1.93.97,1.18.7,1.65,1.1c.47.4.84.82,1.1,1.28s.35.97.27,1.54-.33,1.07-.74,1.48c-.41.41-.94.74-1.58.97-.64.23-1.35.38-2.13.45s-1.58.07-2.41-.01c-.83-.08-1.65-.23-2.46-.45-.81-.22-1.55-.52-2.22-.9-.67-.37-1.24-.81-1.72-1.31s-.8-1.07-.96-1.71Z"/>
  <path class="cls-2" d="M15.34,94.09c0-.88.19-1.64.57-2.29.38-.65.88-1.2,1.5-1.65.62-.45,1.32-.78,2.09-.99s1.55-.32,2.33-.32c.41,0,.8.08,1.16.23.36.15.7.36,1.03.62s.62.57.87.91c.25.34.47.7.66,1.06.18.37.32.74.42,1.11.1.37.14.74.14,1.09,0,.81-.16,1.54-.48,2.17-.32.64-.75,1.17-1.29,1.61-.54.44-1.15.77-1.84,1-.68.23-1.39.35-2.1.35s-1.41-.12-2.02-.35c-.61-.23-1.15-.55-1.6-.97-.45-.41-.81-.93-1.06-1.54-.25-.61-.38-1.29-.38-2.04ZM16.51,93.9c0,.49.09.97.27,1.42s.44.85.76,1.18.71.6,1.16.8c.45.2.92.3,1.43.3.27.03.6-.01.99-.13s.78-.29,1.17-.53c.39-.23.76-.51,1.12-.84.36-.33.66-.68.9-1.07.24-.39.39-.8.44-1.22.06-.42-.02-.84-.21-1.27-.2-.42-.56-.83-1.09-1.22-.53-.39-1.25-.75-2.17-1.09-.53,0-1.07.08-1.64.23-.57.15-1.08.38-1.54.68-.46.3-.84.68-1.15,1.15-.3.46-.45,1-.45,1.6Z"/>
  <path class="cls-2" d="M27.78,98.77c-.16-1.13-.26-2.26-.3-3.38s-.06-2.25-.06-3.38.02-2.25.05-3.37c.03-1.11.04-2.23.02-3.34,0-.13.05-.21.14-.26s.21-.07.33-.07c.14,0,.27.05.38.16.11.1.21.23.29.38.08.15.14.3.18.45.04.15.06.27.06.37.1,2.28.16,4.18.19,5.7.03,1.52.03,2.75,0,3.68s-.08,1.62-.16,2.07c-.07.45-.16.75-.27.91-.11.16-.24.22-.39.19-.15-.03-.31-.06-.47-.1Z"/>
  <path class="cls-2" d="M31.25,90.7v-.36c0-.18,0-.36.01-.55s.01-.37.01-.55v-.36c-.06-.49.08-.74.43-.74.16,0,.29.04.41.12.11.08.21.2.31.36-.05.83-.01,1.63.11,2.4.12.77.25,1.54.41,2.29.15.76.29,1.52.43,2.28s.2,1.56.2,2.39c0,.22-.07.45-.2.67-.14.22-.34.33-.61.33-.21,0-.39-.18-.54-.54s-.28-.81-.39-1.36-.21-1.16-.29-1.83-.14-1.31-.18-1.92c-.04-.61-.07-1.16-.08-1.65-.02-.49-.02-.82-.02-.99Z"/>
  <path class="cls-2" d="M34.47,93.54c0-.59.08-1.21.23-1.86.15-.65.39-1.26.72-1.82.33-.56.74-1.02,1.24-1.37s1.12-.54,1.85-.54c.38,0,.76.06,1.15.17.38.11.78.27,1.18.48.41.21.83.45,1.27.73.44.28.9.59,1.4.92.06-.64.04-1.29-.07-1.97-.11-.68-.25-1.34-.43-1.99-.18-.65-.35-1.27-.54-1.85-.18-.58-.31-1.1-.39-1.56-.08-.46-.09-.84-.02-1.15.06-.3.25-.49.57-.57.43.32.8.77,1.11,1.35.31.58.58,1.25.8,2.02s.41,1.58.55,2.45c.14.87.26,1.75.36,2.64.1.89.17,1.76.23,2.6.06.84.12,1.62.18,2.33.06.71.12,1.31.18,1.82s.14.86.25,1.06c0,.25-.09.41-.27.48-.18.06-.37.1-.56.1-.16,0-.29-.06-.41-.18s-.2-.26-.26-.42c-.06-.16-.12-.34-.18-.54-.06-.2-.12-.38-.18-.55s-.14-.31-.21-.42c-.08-.11-.18-.17-.31-.17-.03,0-.08,0-.13.01-.06,0-.08.02-.08.04-.3.41-.66.82-1.06,1.21-.41.39-.85.73-1.34,1.03-.49.29-1,.53-1.53.7-.53.18-1.07.26-1.61.26-.61,0-1.13-.2-1.59-.6-.45-.4-.84-.88-1.15-1.43-.31-.56-.54-1.15-.69-1.77s-.23-1.16-.23-1.62ZM35.95,93.97c.16.57.3,1.07.43,1.5s.28.78.47,1.05c.18.27.4.47.66.61.25.14.59.2,1,.2.51,0,1.05-.15,1.62-.44.57-.29,1.11-.67,1.6-1.13.49-.46.9-.97,1.22-1.52s.48-1.08.48-1.59v-.57c-.84-.83-1.62-1.42-2.33-1.78s-1.34-.54-1.9-.55c-.56,0-1.04.12-1.46.37-.41.25-.76.59-1.03,1-.27.41-.47.88-.6,1.39-.13.51-.18,1-.17,1.46Z"/>
  <path class="cls-2" d="M47.32,81.96v-.25c0-.07.02-.14.05-.19.03-.06.08-.12.14-.18.06-.06.14-.14.24-.24.18.1.33.26.47.5s.25.51.33.82.16.65.2,1.03c.05.37.09.74.12,1.1s.05.69.06.99c0,.3.01.55.01.74,0,.22-.02.41-.05.55s-.18.21-.43.21c-.21,0-.38-.12-.51-.36s-.25-.54-.33-.9-.15-.75-.19-1.18-.07-.84-.08-1.22-.02-.7-.02-.96v-.48Z"/>
  <path class="cls-2" d="M49.81,94.93c.02-.27.1-.58.24-.93.14-.35.37-.69.67-1.03s.68-.63,1.15-.9,1.01-.45,1.64-.56c.63-.11,1.35-.12,2.15-.02s1.7.33,2.69.72v-.24l-.02-.21c0-.41-.12-.84-.36-1.27s-.55-.82-.92-1.16c-.37-.34-.78-.62-1.21-.84s-.84-.32-1.24-.32c-.16,0-.3.02-.42.07s-.23.11-.35.18-.22.14-.32.19c-.1.06-.23.08-.37.08-.03,0-.05,0-.05-.02-.02-.02-.03-.03-.05-.05-.03-.03-.08-.07-.13-.12s-.08-.08-.08-.1c0-.29.05-.53.16-.74.1-.21.25-.37.43-.5.18-.13.39-.23.62-.3s.47-.11.73-.11c.64.06,1.25.26,1.83.59.58.33,1.11.74,1.6,1.23.49.49.91,1.06,1.28,1.71s.67,1.31.92,2.01.41,1.39.49,2.09c.1.73.1,1.42.02,2.05-.02,0-.06,0-.14-.01-.08,0-.17-.02-.26-.02-.1,0-.18-.02-.24-.04l-.12-.02c-.33-.75-.71-1.35-1.12-1.82-.41-.46-.82-.82-1.23-1.09s-.78-.45-1.13-.55c-.35-.1-.64-.18-.86-.23-.24,0-.52.02-.85.05-.33.03-.66.09-1.02.17-.35.08-.7.19-1.06.32-.36.14-.68.3-.96.49s-.5.42-.67.68-.25.57-.25.92c0,.38.15.7.45.97s.67.48,1.1.64.87.28,1.31.35c.45.06.8.1,1.07.1.45,0,.88-.02,1.31-.07s.86-.1,1.28-.17c.42-.06.84-.12,1.25-.17s.83-.07,1.24-.07h.17c.08,0,.16,0,.25.01.09,0,.17.01.24.01h.16c.13.05.2.12.21.21s.02.19.02.29-.1.2-.3.31c-.2.11-.46.22-.78.33-.32.11-.67.23-1.06.35s-.76.22-1.12.3c-.36.08-.69.15-1,.2-.31.06-.53.08-.66.08-.67,0-1.38-.06-2.13-.17-.75-.11-1.43-.31-2.05-.61-.62-.29-1.13-.7-1.54-1.23s-.61-1.2-.61-2.03Z"/>
  <path class="cls-2" d="M64.35,98.96c-.35-.64-.65-1.33-.91-2.08-.25-.75-.47-1.5-.64-2.27s-.31-1.51-.42-2.23c-.1-.72-.17-1.38-.2-1.97,0-.11,0-.23-.02-.37-.02-.14-.02-.27-.01-.42s.03-.28.07-.41c.04-.13.11-.24.2-.33h.05s.02,0,.02-.01,0-.01.02-.01.02,0,.02.01.02.01.05.01h.05s.11.05.24.1.21.09.24.12c.29-.1.58-.21.88-.35.3-.14.61-.26.92-.38s.63-.22.94-.3c.32-.08.63-.12.93-.12.22,0,.42,0,.59.02.17.02.33.04.5.08.17.04.35.09.54.14.19.06.41.12.67.2.13.1.24.19.35.27.1.09.2.19.29.3.09.11.16.25.2.41.05.16.07.37.07.62-.25.03-.55.01-.9-.06s-.7-.16-1.07-.27c-.37-.11-.76-.21-1.16-.29-.4-.08-.78-.11-1.15-.1-.37.02-.71.12-1.03.31-.33.16-.63.45-.88.86-.11.46-.16.92-.14,1.36.02.45.07.88.17,1.3.1.42.22.84.37,1.27.15.42.29.84.43,1.27.14.42.26.84.37,1.25.11.41.18.84.21,1.27,0,.16-.09.33-.26.51-.18.18-.37.27-.6.27Z"/>
  <path class="cls-2" d="M73.46,90.75h-.67c-.32,0-.65-.03-.99-.08-.34-.06-.65-.15-.93-.27-.28-.13-.42-.31-.42-.55,0-.06.01-.16.04-.27s.1-.18.23-.18l2.46-.21c.06-.59.11-1.07.14-1.45.03-.37.04-.72.02-1.05-.02-.33-.04-.67-.06-1.03s-.04-.82-.06-1.4c0-.11.02-.2.07-.26.05-.06.11-.11.18-.14.07-.03.15-.06.24-.07.09-.02.16-.02.2-.02.1,0,.2.03.3.1.1.06.2.14.27.24s.14.2.19.3c.05.1.07.2.07.3l.19,4.47,2.05.1c.27-.03.52.02.75.16.23.14.35.39.37.75-.19.21-.42.33-.69.37-.27.04-.55.06-.85.05-.29,0-.59,0-.87,0-.29,0-.54.08-.76.23,0,.1,0,.36.02.79s.03.94.05,1.53c.02.59.04,1.22.06,1.89s.04,1.29.06,1.85c.02.57.03,1.05.04,1.45,0,.4.01.62.01.67-.37.22-.66.2-.88-.06s-.4-.65-.54-1.17c-.14-.52-.23-1.12-.29-1.82s-.09-1.38-.1-2.05c0-.68,0-1.3.01-1.88s.04-.99.07-1.24Z"/>
  <path class="cls-2" d="M87.86,92.56c0-.83.12-1.62.37-2.38.25-.76.61-1.42,1.07-1.99s1.04-1.03,1.72-1.37c.68-.34,1.46-.51,2.35-.51.53.06.98.21,1.37.43.39.22.71.5.96.82.25.33.43.7.54,1.13.1.41.14.86.14,1.34,0,.57-.17,1.09-.5,1.55-.33.46-.76.85-1.27,1.16s-1.06.55-1.65.72-1.14.25-1.65.25h-.59c-.2,0-.38-.03-.54-.1-.16-.06-.29-.16-.38-.29-.1-.13-.14-.32-.14-.57,0-.08.01-.15.04-.2.02-.06.09-.1.2-.12s.28-.03.5-.01c.22.03.53.08.91.14.22,0,.55-.08.97-.23.42-.15.85-.35,1.29-.59s.82-.51,1.13-.82.48-.62.48-.92c0-.32-.05-.63-.16-.94s-.26-.59-.47-.82-.45-.43-.73-.57-.59-.2-.94-.17c-.56.05-1.06.2-1.52.45-.45.25-.84.59-1.16.99s-.57.86-.74,1.35c-.18.49-.26,1.01-.26,1.55,0,.41,0,.83.02,1.24.02.41.08.82.18,1.22.1.4.27.78.5,1.15.23.37.57.69,1,.97.44.28.99.51,1.66.69.67.18,1.5.3,2.48.35l4.28-.29c-.25.35-.58.64-.97.86-.39.22-.8.4-1.24.54-.44.14-.87.24-1.3.3-.43.06-.84.1-1.22.1-.92,0-1.79-.15-2.6-.45-.81-.3-1.53-.73-2.15-1.28s-1.11-1.22-1.47-2.01-.54-1.68-.54-2.66Z"/>
  <path class="cls-2" d="M103.27,90.75h-.67c-.32,0-.65-.03-.99-.08-.34-.06-.65-.15-.93-.27-.28-.13-.42-.31-.42-.55,0-.06.01-.16.04-.27s.1-.18.23-.18l2.46-.21c.06-.59.11-1.07.14-1.45.03-.37.04-.72.02-1.05-.02-.33-.04-.67-.06-1.03s-.04-.82-.06-1.4c0-.11.02-.2.07-.26.05-.06.11-.11.18-.14.07-.03.15-.06.24-.07.09-.02.16-.02.2-.02.1,0,.2.03.3.1.1.06.2.14.27.24s.14.2.19.3c.05.1.07.2.07.3l.19,4.47,2.05.1c.27-.03.52.02.75.16.23.14.35.39.37.75-.19.21-.42.33-.69.37-.27.04-.55.06-.85.05-.29,0-.59,0-.87,0-.29,0-.54.08-.76.23,0,.1,0,.36.02.79s.03.94.05,1.53c.02.59.04,1.22.06,1.89s.04,1.29.06,1.85c.02.57.03,1.05.04,1.45,0,.4.01.62.01.67-.37.22-.66.2-.88-.06s-.4-.65-.54-1.17c-.14-.52-.23-1.12-.29-1.82s-.09-1.38-.1-2.05c0-.68,0-1.3.01-1.88s.04-.99.07-1.24Z"/>
  <path class="cls-2" d="M124.77,85.68c-1.11,0-2.27-.08-3.45-.23-1.19-.15-2.32-.31-3.4-.49-.14.03-.25.01-.33-.06s-.14-.17-.19-.29-.08-.23-.08-.35c0-.11-.01-.2-.01-.26h1.24c.59,0,1.29,0,2.09.02.8.02,1.68.04,2.63.07.95.03,1.9.08,2.85.14.96.06,1.88.14,2.77.23.89.09,1.68.2,2.38.33.69.14,1.24.29,1.65.47.41.18.61.37.61.6,0,.16-.02.32-.07.48-.05.16-.17.24-.36.24-.59-.03-1.17-.12-1.74-.26s-1.15-.28-1.72-.42c-.57-.14-1.16-.23-1.76-.29-.6-.06-1.21.01-1.83.2,0,.73.04,1.54.13,2.41.09.88.19,1.77.31,2.68s.25,1.82.41,2.72.3,1.76.44,2.56c.03.21.1.41.2.61.1.2.21.39.32.57.11.18.21.37.29.56s.12.38.12.57c0,.13-.04.23-.12.3s-.18.12-.29.14-.23.04-.36.04h-.31c-.32,0-.57-.13-.75-.38-.18-.25-.32-.55-.42-.9-.1-.34-.16-.7-.19-1.06-.03-.37-.06-.66-.1-.88-.13-.88-.24-1.72-.33-2.54-.1-.82-.18-1.64-.25-2.46-.07-.82-.14-1.65-.19-2.48s-.12-1.7-.18-2.59Z"/>
  <path class="cls-2" d="M132.53,106.42v-.32c0-.1.02-.19.05-.26s.08-.13.14-.18c.1-.03.21-.05.33-.05.24.27.55.62.92,1.04.37.42.8.83,1.28,1.23.48.4.98.75,1.5,1.05.53.3,1.06.45,1.6.45.45-.02.83-.13,1.15-.35s.59-.5.81-.85c.22-.35.41-.75.55-1.19.14-.45.26-.9.35-1.36.09-.46.15-.91.19-1.34s.08-.8.13-1.12c.03-.16.07-.43.11-.8.04-.37.08-.79.12-1.24s.07-.93.1-1.42c.02-.49.02-.94-.01-1.35s-.1-.74-.19-1-.24-.39-.43-.39c-.27,0-.56.08-.86.24-.3.16-.62.34-.94.54-.33.2-.66.38-.99.54-.33.16-.66.24-.98.24-.61,0-1.16-.12-1.66-.37-.5-.25-.96-.57-1.37-.97-.41-.4-.78-.86-1.1-1.4-.32-.53-.59-1.09-.8-1.66s-.37-1.15-.48-1.72-.16-1.11-.16-1.62c0-.11-.01-.29-.04-.55-.02-.25-.02-.52.01-.79.03-.27.1-.51.21-.72.11-.21.29-.31.53-.31.06,0,.12.13.16.38.04.25.09.59.14.99s.13.87.21,1.4.2,1.06.35,1.6c.14.54.32,1.07.53,1.6s.46.99.76,1.4.66.74,1.09.99c.42.25.9.38,1.45.38.35,0,.72-.08,1.1-.23.38-.15.74-.35,1.09-.59s.66-.51.94-.81c.29-.32.51-.63.67-.93,0-.06,0-.21-.02-.45s-.03-.51-.05-.82-.03-.65-.05-1.02c-.02-.37-.03-.71-.05-1.04-.02-.33-.03-.61-.04-.85s-.01-.39-.01-.45c.03-.97.1-1.56.21-1.78s.25-.15.41.2c.16.35.33.94.5,1.77.18.83.34,1.8.49,2.9.15,1.11.27,2.31.36,3.62.09,1.31.12,2.62.11,3.93s-.1,2.58-.25,3.81c-.15,1.23-.39,2.31-.73,3.26-.33.95-.77,1.72-1.31,2.31-.54.59-1.21.9-2.01.93-.32,0-.7-.06-1.13-.18s-.88-.28-1.33-.49c-.45-.21-.89-.45-1.33-.74s-.83-.6-1.17-.93-.62-.68-.84-1.05c-.21-.37-.32-.73-.32-1.1Z"/>
  <g>
    <polygon class="cls-1" points="32.37 83.37 32.77 84.59 34.05 84.59 33.01 85.34 33.41 86.56 32.37 85.81 31.34 86.56 31.73 85.34 30.7 84.59 31.98 84.59 32.37 83.37"/>
    <path class="cls-2" d="M31.65,83.57c.13.41.26.81.4,1.22.03.08.2.08.25.08h1.28l-.18-.21-1.03.75s-.07.07-.07.13l.4,1.22,1.41-.43-1.03-.75c-.15-.11-.5-.01-.64.02-.25.06-.49.14-.7.29l-1.03.75,1.37-.2.4-1.22s.02-.08-.03-.11l-1.03-.75-1.16.52h1.28c.24,0,.49-.06.72-.14.11-.04.42-.13.47-.27.13-.41.26-.81.4-1.22.07-.23-.48-.13-.57-.11-.19.04-.38.09-.55.17-.09.04-.27.11-.3.21-.13.41-.26.81-.4,1.22l1.19-.41h-1.28c-.29,0-.62.08-.89.2-.08.04-.43.2-.27.31l1.03.75-.03-.11-.4,1.22c-.07.21.4.14.48.12.31-.05.63-.14.88-.32l1.03-.75-1.34.31,1.03.75c.08.06.28.04.36.03.16-.02.32-.05.47-.1.1-.03.63-.19.58-.36l-.4-1.22-.07.13,1.03-.75c.2-.14-.06-.21-.18-.21h-1.28l.25.08c-.13-.41-.26-.81-.4-1.22-.03-.08-.19-.08-.25-.08-.17,0-.36.03-.53.08s-.34.1-.5.2c-.06.03-.2.11-.17.2Z"/>
  </g>
</svg>